<svg id="Layer_1" xmlns="http://www.w3.org/2000/svg" viewBox="0 0 120 16.5"><style>.st0{fill:#FF8300;}</style><path class="st0" d="M10.3 15.1H5.8c-1 0-1-.3-1-1.8v-5h4.5c1.5 0 2 .8 2 2.3h.5V5.4h-.5c0 1.5-.5 2-2 2H4.8V3.1c0-1.3 0-1.5 1-1.5h4c1.8 0 2.8.5 3 2.5h.5L13 .4H0v.5c1.8 0 2.3.2 2.3 2.2v10.3c0 1.8-.5 2.3-2.3 2.3v.4h13.3l1.3-3.8-.6-.2c-.5 1.8-1.7 3-3.7 3zm15.3 0h-3.3c-1.3 0-1.3-.7-1.3-2v-10c0-1.8.5-2.3 2.3-2.3V.4h-6.8v.5c1.5 0 2.3.5 2.3 2.3v10.5c0 1.8-.5 2-2.3 2.3v.5H29l1.3-4h-.5c-1 1.6-2 2.6-4.2 2.6zm13-7.7c-2.5-1.5-3.8-2.5-3.8-3.8 0-1.5 1-2.5 2.5-2.5 2.3 0 3.5 2 4.3 4h.5L41.6.3h-.5c0 .3 0 .5-.3.5-1 0-1.5-.8-3.3-.8-2.5 0-4.3 1.5-4.3 4.3 0 2 1.8 3.3 4.3 5 2 1.5 3.3 2.5 3.3 3.8 0 1.5-1.3 2.5-2.8 2.5-2.3 0-3.8-2.3-4.5-4.3H33l.8 4.8h.5c0-.3.3-.5.5-.5.5 0 2 .8 3.5.8 2.5 0 4.5-2 4.5-4.5-.5-2-2.5-3.5-4.2-4.5zm16.5 7.7h-4.5c-1 0-1-.5-1-2v-5h4.5c1.5 0 2 .8 2 2.3h.5v-5h-.5c-.3 1.5-.5 2.3-2 2.3h-4.5V3.1c0-1.3 0-1.5 1-1.5h4c1.8 0 2.8.5 3 2.5h.5L57.8.6h-13v.5c1.8 0 2.3.3 2.3 2.3v10.3c0 1.8-.5 2.3-2.3 2.3v.5h13.3l1.3-3.8-.5-.3c-.5 1.5-1.8 2.7-3.8 2.7zM71.1.9c1.3 0 1.8.3 1.8.8s-.3 1-.5 2l-3.8 9-3.2-7.6c-.5-1.5-1.3-3-1.3-3.3 0-1 1.3-1 1.8-1V.4h-6.5v.5c.8 0 1.5.5 1.8 1 .8 1.5 1.5 3.3 2.3 4.8l4.3 9.8h.3l5-11.5c.5-1 1.3-3.3 2-3.8.3-.3.5-.3.8-.3V.4h-4.5v.5h-.3zm6.3 0c1.8 0 2.3.3 2.3 2.3v10.3c0 1.8-.5 2.3-2.3 2.3v.3h7v-.5c-1.8 0-2.3-.3-2.3-2.3V3.1c0-1.8.5-2.3 2.3-2.3V.4h-7v.5zm20.3 14.2h-4.5c-1 0-1-.5-1-2v-5h4.5c1.5 0 2 .8 2 2.3h.5v-5h-.5c-.3 1.5-.5 2.3-2 2.3h-4.5V3.1c0-1.3 0-1.5 1-1.5h4c1.8 0 2.8.5 3 2.5h.5l-.5-3.8h-13v.5c1.8 0 2.3.3 2.3 2.3v10.3c0 1.8-.5 2.3-2.3 2.3v.4h13.3l1.3-3.8-.5-.3c-.3 1.9-1.6 3.1-3.6 3.1zm20-.7L113 8.6c2.3-.5 4-1.8 4-4.3 0-3.8-3.3-3.8-6-3.8h-7v.6c1.8 0 2.3.3 2.3 2.3v10.3c0 1.8-.5 2.3-2.3 2.3v.5h7v-.8c-1.8 0-2.3-.3-2.3-2.3V9.1h2l5.8 7h3.5v-.5c-1.3-.2-1.8-.5-2.3-1.2zm-8-6.3h-1.3V2.4c0-1 .3-1.3 1.8-1.3 2.3 0 4 .8 4 3.3 0 3-2.2 3.7-4.5 3.7z"/></svg>