<svg xmlns="http://www.w3.org/2000/svg" width="256.292" height="31" viewBox="0 0 256.292 31"><path fill="#E8B21F" d="M33.116 2.083v26.835c0 1.15-.934 2.082-2.082 2.082H2.086C.936 31 0 30.066 0 28.918V2.083C0 .933.936 0 2.087 0h28.948c1.148 0 2.082.934 2.082 2.083z"/><linearGradient id="a" gradientUnits="userSpaceOnUse" x1="282.173" y1="-273.044" x2="277.845" y2="-257.95" gradientTransform="matrix(.9942 0 0 -.9942 -263.147 -259.68)"><stop offset="0" stop-color="#F8E3B5"/><stop offset=".751" stop-color="#FAB321"/></linearGradient><path fill="url(#a)" d="M23.636 5.854c3.298 0 6.48.492 9.48 1.404V2.083C33.115.933 32.18 0 31.03 0H2.086C.934 0 0 .934 0 2.083V16.02C5.934 9.76 14.33 5.855 23.636 5.855z"/><path fill="#FAB321" d="M2.086 31h28.946c1.15 0 2.084-.934 2.084-2.082V7.256c-3-.912-6.182-1.404-9.48-1.404C14.33 5.854 5.935 9.76 0 16.02v12.897C0 30.067.934 31 2.086 31z"/><g><g fill="#FFF"><path d="M13.355 16.825c-.758.284-1.967.49-2.97.49-5.54 0-7.697-4.102-7.697-7.506 0-3.084 2.212-7.32 7.753-7.32 4.52 0 7.66 2.74 7.66 7.166 0 3.33-2.1 5.428-3.29 6.223l3.8 1.946c3.992 2.043 6.506 2.25 7.792 2.25.982 0 2.383-.15 3.687-.66.112-.04.207-.094.282-.094.095 0 .17.075.17.17 0 .112-.093.17-.226.227-1.134.547-3.272 1.416-5.996 1.416-2.855 0-4.86-.756-8-2.57l-2.965-1.74m2.098-6.658c0-4.576-2.836-6.77-5.446-6.77-2.477 0-4.69 1.59-4.69 5.977 0 4.502 2.723 6.997 5.768 6.997 1.512 0 4.368-.663 4.368-6.204z"/><path d="M21.296 16.825c-.303-.133-.36-.227-.36-.642 0-1.04.077-2.174.095-2.478.02-.282.077-.49.228-.49.17 0 .19.17.19.32 0 .247.075.642.17.965.415 1.4 1.532 1.91 2.704 1.91 1.702 0 2.534-1.154 2.534-2.157 0-.927-.283-1.814-1.853-3.025l-.87-.68c-2.08-1.626-2.8-2.95-2.8-4.483 0-2.08 1.74-3.573 4.37-3.573 1.228 0 2.023.188 2.513.32.17.04.265.095.265.227 0 .246-.075.793-.075 2.27 0 .415-.056.567-.208.567-.133 0-.19-.112-.19-.34 0-.172-.094-.757-.49-1.248-.284-.36-.833-.93-2.062-.93-1.4 0-2.25.814-2.25 1.95 0 .87.434 1.532 2.004 2.722l.528.398c2.27 1.76 3.102 3.026 3.102 4.822 0 1.098-.417 2.403-1.78 3.293-.944.603-2.003.772-3.005.772-1.095 0-1.946-.133-2.76-.492z"/></g></g><ellipse fill="#8D8A89" cx="16.666" cy="27.602" rx="13.778" ry=".648"/><g><path fill="#FFF" d="M42.544 23.787c-.367-.37-.55-.838-.55-1.4V10.418h-3.53c-.41 0-.75-.142-1.024-.424-.274-.28-.412-.61-.412-.99 0-.378.137-.707.412-.988.273-.282.615-.424 1.024-.424h10.74c.41 0 .75.14 1.02.424.27.28.405.61.405.99 0 .377-.136.707-.406.988-.27.28-.61.423-1.02.423H45.71v11.967c0 .563-.184 1.03-.55 1.4-.367.37-.804.557-1.313.557-.502 0-.937-.187-1.303-.557zM54.005 22.403c-1.405-1.523-2.107-3.682-2.107-6.476s.702-4.95 2.107-6.476 3.43-2.286 6.076-2.286 4.674.763 6.077 2.287 2.107 3.683 2.107 6.477-.702 4.952-2.107 6.476-3.43 2.287-6.076 2.287-4.67-.76-6.075-2.287zm9.323-1.973c.69-.987 1.036-2.488 1.036-4.502 0-2.006-.343-3.504-1.03-4.497-.687-.99-1.77-1.486-3.252-1.486-1.48 0-2.566.496-3.252 1.487-.687.993-1.03 2.492-1.03 4.498 0 2.013.345 3.514 1.036 4.502.69.988 1.773 1.48 3.247 1.48s2.554-.492 3.245-1.48zM72.575 23.793c-.363-.367-.544-.832-.544-1.395v-12.28c0-1.68.734-2.523 2.2-2.523h4.792c.95 0 1.79.085 2.517.255.728.17 1.38.443 1.956.82.575.38 1.015.906 1.32 1.58.303.677.456 1.488.456 2.438 0 3.41-2.13 5.116-6.39 5.116h-3.136V22.4c0 .562-.183 1.027-.55 1.394-.367.366-.804.55-1.313.55-.51 0-.945-.185-1.308-.55zm5.89-8.467c1.105-.016 1.907-.207 2.408-.573.5-.366.753-1.056.753-2.066 0-.51-.064-.93-.19-1.263-.128-.33-.332-.585-.614-.758-.282-.174-.593-.29-.933-.353-.34-.062-.772-.092-1.297-.092h-2.847v5.105h2.72z"/><path fill="#FAB321" d="M92.465 24.307c-.85-.255-1.592-.626-2.228-1.116-.637-.49-1.134-1.126-1.493-1.91-.36-.782-.54-1.672-.54-2.667v-9.11c0-.562.182-1.027.545-1.393.362-.367.797-.55 1.306-.55.51 0 .947.183 1.313.55.366.366.553.83.56 1.394v9.028c0 1.11.325 1.953.973 2.523.648.572 1.428.856 2.338.856.433 0 .842-.064 1.228-.195s.74-.328 1.06-.59.574-.618.764-1.066c.19-.448.283-.957.283-1.53V9.505c0-.563.183-1.028.55-1.394.367-.367.804-.55 1.314-.55.508 0 .944.183 1.306.55.363.366.544.83.544 1.394v9.11c0 .987-.18 1.873-.538 2.656-.36.783-.857 1.422-1.493 1.916-.637.494-1.38.868-2.23 1.122-.848.255-1.778.383-2.79.383-1 0-1.926-.127-2.775-.383zM107.077 23.886c-.316-.305-.475-.688-.475-1.15V9.747c0-.664.18-1.188.54-1.575.358-.386.807-.58 1.347-.58.393.01.79.145 1.19.407.403.262.755.61 1.056 1.042l7.303 9.988V9.215c0-.462.156-.85.473-1.157.316-.31.695-.463 1.134-.463.44 0 .82.152 1.14.457.32.305.48.693.48 1.163V21.68c0 .804-.153 1.448-.458 1.934-.306.486-.78.73-1.43.73-.378 0-.767-.138-1.164-.412-.398-.273-.758-.635-1.082-1.083l-7.29-9.99v9.874c0 .463-.164.847-.488 1.15-.324.305-.705.458-1.145.458-.438 0-.816-.152-1.133-.456zM126.353 23.78c-.363-.366-.544-.83-.544-1.394V9.54c0-.564.18-1.03.543-1.4.362-.372.798-.558 1.307-.558s.947.186 1.313.557c.366.37.55.836.55 1.4v12.847c0 .563-.184 1.028-.55 1.395-.366.366-.804.55-1.313.55-.508 0-.944-.185-1.307-.55zM137.886 23.683c-.44-.485-.888-1.412-1.343-2.778l-3.9-10.95c-.023-.07-.045-.137-.064-.202-.02-.066-.034-.13-.04-.19-.01-.063-.017-.124-.024-.187-.008-.062-.012-.123-.012-.185 0-.192.03-.378.092-.556.062-.177.145-.33.25-.463.103-.13.228-.244.37-.34.143-.097.295-.17.457-.22.162-.05.332-.076.51-.076.185 0 .368.03.55.092.18.062.356.154.526.277.17.123.32.287.456.492s.245.437.33.7l3.832 11.448 3.82-11.448c.162-.517.415-.907.76-1.17.342-.26.715-.393 1.115-.393.447 0 .84.154 1.175.463.336.31.504.71.504 1.203 0 .078-.006.156-.018.238-.012.08-.027.164-.047.25-.02.084-.044.173-.075.265L143.2 20.9c-.456 1.367-.903 2.294-1.343 2.78-.44.485-1.1.73-1.98.73-.887.003-1.55-.24-1.99-.727zM150.643 23.672c-.32-.447-.48-.97-.48-1.563V10.036c0-.765.158-1.36.475-1.788.316-.43.86-.643 1.632-.643h7.906c.41 0 .742.137 1 .412.26.272.39.6.39.988 0 .37-.132.692-.395.966s-.594.41-.994.41h-6.378v4.052h5.89c.41 0 .746.135 1.008.405s.394.596.394.974-.13.7-.394.966-.598.4-1.007.4h-5.892v4.386h6.644c.394 0 .716.14.966.417.25.277.377.605.377.983 0 .38-.126.703-.377.973s-.573.404-.966.404h-8.46c-.574 0-1.02-.225-1.34-.672zM165.908 23.816c-.355-.344-.533-.82-.533-1.43V9.48c0-.578.203-1.037.607-1.377.406-.34.905-.51 1.5-.51h4.918c.702 0 1.34.035 1.916.104.575.07 1.14.2 1.695.394.558.194 1.023.444 1.402.754.378.31.683.716.915 1.222.23.505.347 1.094.347 1.765 0 1.004-.307 1.848-.92 2.536-.613.686-1.557 1.134-2.83 1.342v.047c1.118.186 1.927.575 2.424 1.17.498.594.816 1.472.955 2.638l.29 2.34c.015.168.022.334.022.496 0 .64-.15 1.122-.45 1.446-.302.324-.734.486-1.297.486-.557 0-1.004-.172-1.343-.515-.34-.344-.54-.867-.6-1.57l-.245-2.29c-.092-.98-.34-1.672-.74-2.073-.402-.4-1.1-.6-2.095-.6h-2.755v5.103c0 .625-.18 1.106-.538 1.44-.36.337-.8.505-1.325.505-.525 0-.965-.173-1.32-.516zm5.3-9.08c.426 0 .79-.013 1.095-.036.305-.023.64-.08 1.002-.174.362-.092.657-.218.886-.376.23-.158.42-.386.574-.683.154-.297.23-.654.23-1.07 0-.317-.038-.597-.114-.84-.077-.244-.168-.443-.27-.6-.104-.16-.26-.292-.464-.4-.205-.108-.388-.19-.55-.244-.162-.055-.387-.096-.672-.127-.285-.03-.515-.05-.688-.053-.173-.004-.423-.006-.747-.006h-2.432v4.607h2.15zM182.58 23.127c-.27-.192-.406-.477-.406-.856 0-.185.037-.375.11-.572.073-.197.17-.375.295-.532.122-.158.272-.287.45-.39.177-.1.358-.15.544-.15.186 0 .366.048.544.14 1.436.765 2.86 1.145 4.27 1.145.95 0 1.722-.17 2.316-.514.594-.344.89-.854.89-1.534 0-.54-.163-.966-.49-1.278-.33-.312-.82-.58-1.476-.805l-3.832-1.274c-1.366-.486-2.343-1.06-2.934-1.72-.59-.66-.886-1.564-.886-2.713 0-1.505.605-2.7 1.816-3.583 1.212-.884 2.81-1.325 4.792-1.325 1.057 0 2.113.146 3.166.44 1.053.292 1.853.682 2.4 1.168.27.248.407.557.407.927s-.124.704-.37 1-.54.446-.88.446c-.048 0-.09-.004-.134-.012l-.127-.022c-.043-.008-.086-.02-.127-.04-.044-.02-.088-.042-.134-.065-1.28-.71-2.617-1.065-4.005-1.065-.6 0-1.136.057-1.602.168-.467.112-.86.318-1.18.62-.32.3-.48.68-.48 1.133 0 .363.102.684.31.96.21.278.506.507.892.684.386.178.76.322 1.116.434.36.113.79.233 1.296.36.506.127.878.233 1.117.318.824.255 1.516.513 2.077.775.56.262 1.066.585 1.52.966.456.38.792.834 1.01 1.36.215.523.322 1.133.322 1.827 0 1.59-.608 2.843-1.823 3.762-1.216.918-2.857 1.377-4.925 1.377-2.412.003-4.364-.518-5.852-1.56zM199.357 23.78c-.363-.366-.544-.83-.544-1.394V9.54c0-.564.18-1.03.544-1.4.362-.372.798-.558 1.307-.558s.947.186 1.313.557c.366.37.55.836.55 1.4v12.847c0 .563-.184 1.028-.55 1.395-.366.366-.804.55-1.313.55s-.946-.185-1.307-.55zM210.1 23.787c-.366-.37-.55-.838-.55-1.4V10.418h-3.53c-.41 0-.75-.142-1.024-.424-.273-.28-.41-.61-.41-.99 0-.378.136-.707.41-.988.273-.282.615-.424 1.024-.424h10.74c.41 0 .75.14 1.02.424.268.28.405.61.405.99 0 .377-.136.707-.406.988s-.61.423-1.02.423h-3.494v11.967c0 .563-.184 1.03-.55 1.4-.367.37-.805.557-1.313.557-.502 0-.937-.187-1.303-.557zM220.798 23.78c-.363-.366-.544-.83-.544-1.394V9.54c0-.564.18-1.03.544-1.4.362-.372.798-.558 1.307-.558.51 0 .947.186 1.313.557.366.37.55.836.55 1.4v12.847c0 .563-.184 1.028-.55 1.395-.366.366-.804.55-1.313.55-.51 0-.945-.185-1.307-.55zM229.004 23.672c-.32-.447-.48-.97-.48-1.563V10.036c0-.765.158-1.36.475-1.788.315-.43.86-.643 1.63-.643h7.907c.41 0 .742.137 1 .412.26.272.39.6.39.988 0 .37-.132.692-.395.966s-.595.41-.995.41h-6.378v4.052h5.89c.41 0 .745.135 1.007.405.262.27.394.596.394.974s-.13.7-.393.966-.598.4-1.007.4h-5.89v4.386h6.643c.394 0 .716.14.966.417.25.277.376.605.376.983 0 .38-.126.703-.377.973s-.574.404-.967.404h-8.46c-.574 0-1.02-.225-1.34-.672zM243.69 23.127c-.27-.192-.406-.477-.406-.856 0-.185.037-.375.11-.572.073-.197.17-.375.295-.532.122-.158.272-.287.45-.39.177-.1.358-.15.544-.15.186 0 .366.048.544.14 1.436.765 2.86 1.145 4.27 1.145.95 0 1.722-.17 2.316-.514.594-.344.89-.854.89-1.534 0-.54-.163-.966-.49-1.278-.33-.312-.82-.58-1.476-.805l-3.83-1.274c-1.367-.486-2.344-1.06-2.935-1.72-.59-.66-.886-1.564-.886-2.713 0-1.505.605-2.7 1.816-3.583 1.212-.884 2.81-1.325 4.792-1.325 1.057 0 2.113.146 3.166.44 1.054.292 1.854.682 2.402 1.168.27.248.406.557.406.927s-.124.704-.37 1-.54.446-.88.446c-.048 0-.09-.004-.134-.012l-.127-.022c-.043-.008-.085-.02-.127-.04l-.133-.065c-1.28-.71-2.617-1.065-4.004-1.065-.6 0-1.137.057-1.603.168-.467.112-.86.318-1.18.62-.32.3-.48.68-.48 1.133 0 .363.102.684.31.96.21.278.506.507.892.684.386.178.76.322 1.116.434.36.113.79.233 1.296.36.506.127.878.233 1.117.318.826.255 1.518.513 2.08.775.558.262 1.065.585 1.52.966s.79.834 1.008 1.36c.216.523.323 1.133.323 1.827 0 1.59-.606 2.843-1.82 3.762-1.217.918-2.858 1.377-4.926 1.377-2.413.003-4.365-.518-5.854-1.56z"/></g></svg>